<svg width="25" height="30" viewBox="0 0 25 30" fill="none" xmlns="http://www.w3.org/2000/svg">
<path d="M12.5 13.5C14.5781 13.5 18.75 14.505 18.75 16.5V16.74C17.2344 18.42 15 19.5 12.5 19.5C10 19.5 7.76562 18.42 6.25 16.74V16.5C6.25 14.505 10.4219 13.5 12.5 13.5ZM12.5 12C10.7812 12 9.375 10.65 9.375 9C9.375 7.35 10.7812 6 12.5 6C14.2188 6 15.625 7.35 15.625 9C15.625 10.65 14.2188 12 12.5 12ZM21.875 12.3C21.875 6.855 17.7344 3 12.5 3C7.26562 3 3.125 6.855 3.125 12.3C3.125 15.81 6.17187 20.46 12.5 26.01C18.8281 20.46 21.875 15.81 21.875 12.3ZM12.5 0C19.0625 0 25 4.83 25 12.3C25 17.28 20.8281 23.175 12.5 30C4.17188 23.175 0 17.28 0 12.3C0 4.83 5.9375 0 12.5 0Z" fill="#027EF1"/>
</svg>
