<svg width="28" height="25" viewBox="0 0 28 25" fill="none" xmlns="http://www.w3.org/2000/svg">
<path d="M2.824 20.5882V19.6324C2.824 19.1324 3.04992 18.6618 3.40293 18.4412C5.78921 16.9559 8.51437 16.1765 11.296 16.1765C11.3384 16.1765 11.3666 16.1765 11.409 16.1912C11.5502 15.1618 11.8326 14.1765 12.2421 13.2794C11.9314 13.25 11.6208 13.2353 11.296 13.2353C7.87897 13.2353 4.68785 14.2206 1.96268 15.9118C0.720121 16.6765 0 18.1176 0 19.6324V23.5294H13.0751C12.4821 22.6471 12.0161 21.6471 11.7055 20.5882H2.824Z" fill="#027EF1"/>
<path d="M11.296 11.7647C14.4165 11.7647 16.944 9.13235 16.944 5.88235C16.944 2.63235 14.4165 0 11.296 0C8.17549 0 5.64801 2.63235 5.64801 5.88235C5.64801 9.13235 8.17549 11.7647 11.296 11.7647ZM11.296 2.94118C12.8492 2.94118 14.12 4.26471 14.12 5.88235C14.12 7.5 12.8492 8.82353 11.296 8.82353C9.74282 8.82353 8.47201 7.5 8.47201 5.88235C8.47201 4.26471 9.74282 2.94118 11.296 2.94118Z" fill="#027EF1"/>
<path d="M26.475 17.6471C26.475 17.3235 26.4327 17.0294 26.3903 16.7206L28 15.2353L26.588 12.6912L24.5406 13.4118C24.0888 13.0147 23.5804 12.7059 23.0156 12.4853L22.592 10.2941H19.768L19.3444 12.4853C18.7796 12.7059 18.2713 13.0147 17.8195 13.4118L15.7721 12.6912L14.3601 15.2353L15.9697 16.7206C15.9274 17.0294 15.885 17.3235 15.885 17.6471C15.885 17.9706 15.9274 18.2647 15.9697 18.5735L14.3601 20.0588L15.7721 22.6029L17.8195 21.8824C18.2713 22.2794 18.7796 22.5882 19.3444 22.8088L19.768 25H22.592L23.0156 22.8088C23.5804 22.5882 24.0888 22.2794 24.5406 21.8824L26.588 22.6029L28 20.0588L26.3903 18.5735C26.4327 18.2647 26.475 17.9706 26.475 17.6471ZM21.18 20.5882C19.6268 20.5882 18.356 19.2647 18.356 17.6471C18.356 16.0294 19.6268 14.7059 21.18 14.7059C22.7332 14.7059 24.004 16.0294 24.004 17.6471C24.004 19.2647 22.7332 20.5882 21.18 20.5882Z" fill="#027EF1"/>
</svg>
